# xmcd
#
# Track frame offsets:
#	150
#	15785
#	32367
#	61101
#
# Disc length: 1930 seconds
#
# Revision: 1
# Processed by: cddbd v1.5.2PL0 Copyright (c) Steve Scherf et al.
# Submitted via: audiograbber 1.81.03
#
DISCID=1a078804
DTITLE=James Morrison - Wonderful World
DYEAR=2006
DGENRE=
TTITLE0=Wonderful World
TTITLE1=You Give Me Something
TTITLE2=Better Man
TTITLE3=Data Track
EXTD=
EXTT0=
EXTT1=
EXTT2=
EXTT3=
PLAYORDER=
